<mxfile host="app.diagrams.net" modified="2024-06-16T14:54:56.087Z" agent="Mozilla/5.0 (Windows NT 10.0; Win64; x64) AppleWebKit/537.36 (KHTML, like Gecko) Chrome/126.0.0.0 Safari/537.36 Edg/126.0.0.0" etag="q7yFmWBTXNb9yhl2nq2Z" version="24.5.4" type="github">
  <diagram name="第 1 页" id="JoeD6NzNSS_i4DSreLfH">
    <mxGraphModel dx="3733" dy="1153" grid="1" gridSize="10" guides="1" tooltips="1" connect="1" arrows="1" fold="1" page="1" pageScale="1" pageWidth="827" pageHeight="1169" math="1" shadow="0">
      <root>
        <mxCell id="0" />
        <mxCell id="1" parent="0" />
        <mxCell id="dlywzHCYDAKwAIvzZoa1-96" value="" style="group" parent="1" vertex="1" connectable="0">
          <mxGeometry x="-570" y="150" width="1000" height="930" as="geometry" />
        </mxCell>
        <mxCell id="dlywzHCYDAKwAIvzZoa1-53" value="" style="rounded=0;whiteSpace=wrap;html=1;" parent="dlywzHCYDAKwAIvzZoa1-96" vertex="1">
          <mxGeometry y="20" width="1000" height="910" as="geometry" />
        </mxCell>
        <mxCell id="8uZlXo2zn4zUqa4FPAqo-15" value="&lt;font size=&quot;1&quot; face=&quot;Times New Roman&quot; style=&quot;&quot;&gt;&lt;b style=&quot;font-size: 20px;&quot;&gt;MEC System&lt;/b&gt;&lt;/font&gt;" style="text;strokeColor=none;align=center;fillColor=none;html=1;verticalAlign=middle;whiteSpace=wrap;rounded=0;" parent="dlywzHCYDAKwAIvzZoa1-96" vertex="1">
          <mxGeometry x="123.41650909090902" width="501.8181818181818" height="109.19999999999999" as="geometry" />
        </mxCell>
        <mxCell id="dlywzHCYDAKwAIvzZoa1-22" value="" style="ellipse;whiteSpace=wrap;html=1;aspect=fixed;fillColor=none;dashed=1;" parent="dlywzHCYDAKwAIvzZoa1-96" vertex="1">
          <mxGeometry x="400.77" y="208" width="400" height="400" as="geometry" />
        </mxCell>
        <mxCell id="dlywzHCYDAKwAIvzZoa1-7" value="" style="ellipse;whiteSpace=wrap;html=1;aspect=fixed;fillColor=none;dashed=1;" parent="dlywzHCYDAKwAIvzZoa1-96" vertex="1">
          <mxGeometry x="268.27" y="500" width="400" height="400" as="geometry" />
        </mxCell>
        <mxCell id="dlywzHCYDAKwAIvzZoa1-2" value="" style="ellipse;whiteSpace=wrap;html=1;aspect=fixed;fillColor=none;dashed=1;" parent="dlywzHCYDAKwAIvzZoa1-96" vertex="1">
          <mxGeometry x="50.76999999999998" y="300" width="300" height="300" as="geometry" />
        </mxCell>
        <mxCell id="8uZlXo2zn4zUqa4FPAqo-18" value="" style="image;points=[];aspect=fixed;html=1;align=center;shadow=0;dashed=0;image=img/lib/allied_telesis/computer_and_terminals/Server_Desktop.svg;" parent="dlywzHCYDAKwAIvzZoa1-96" vertex="1">
          <mxGeometry x="139.23090909090905" y="372" width="123.06839999999998" height="156" as="geometry" />
        </mxCell>
        <mxCell id="8uZlXo2zn4zUqa4FPAqo-20" value="" style="image;points=[];aspect=fixed;html=1;align=center;shadow=0;dashed=0;image=img/lib/allied_telesis/computer_and_terminals/Server_Desktop.svg;" parent="dlywzHCYDAKwAIvzZoa1-96" vertex="1">
          <mxGeometry x="539.2318181818182" y="329.99999999999994" width="123.06839999999998" height="156" as="geometry" />
        </mxCell>
        <mxCell id="8uZlXo2zn4zUqa4FPAqo-19" value="" style="image;points=[];aspect=fixed;html=1;align=center;shadow=0;dashed=0;image=img/lib/allied_telesis/computer_and_terminals/Server_Desktop.svg;" parent="dlywzHCYDAKwAIvzZoa1-96" vertex="1">
          <mxGeometry x="406.7381818181817" y="621.9999999999999" width="123.06839999999998" height="156" as="geometry" />
        </mxCell>
        <mxCell id="8uZlXo2zn4zUqa4FPAqo-22" value="" style="sketch=0;outlineConnect=0;fontColor=#232F3E;gradientColor=none;fillColor=#232F3D;strokeColor=none;dashed=0;verticalLabelPosition=bottom;verticalAlign=top;align=center;html=1;fontSize=12;fontStyle=0;aspect=fixed;pointerEvents=1;shape=mxgraph.aws4.user;" parent="dlywzHCYDAKwAIvzZoa1-96" vertex="1">
          <mxGeometry x="79.99999999999997" y="458" width="28" height="28" as="geometry" />
        </mxCell>
        <mxCell id="8uZlXo2zn4zUqa4FPAqo-23" value="&lt;font face=&quot;Times New Roman&quot; style=&quot;font-size: 12px;&quot;&gt;&lt;b style=&quot;&quot;&gt;U&lt;sub&gt;1&lt;/sub&gt;&lt;/b&gt;&lt;/font&gt;" style="text;strokeColor=none;align=center;fillColor=none;html=1;verticalAlign=middle;whiteSpace=wrap;rounded=0;" parent="dlywzHCYDAKwAIvzZoa1-96" vertex="1">
          <mxGeometry x="74.49999999999997" y="486" width="39" height="30" as="geometry" />
        </mxCell>
        <mxCell id="dlywzHCYDAKwAIvzZoa1-4" value="" style="rounded=0;whiteSpace=wrap;html=1;" parent="dlywzHCYDAKwAIvzZoa1-96" vertex="1">
          <mxGeometry x="133.27" y="320" width="116.73" height="40" as="geometry" />
        </mxCell>
        <mxCell id="dlywzHCYDAKwAIvzZoa1-26" value="" style="sketch=0;outlineConnect=0;fontColor=#232F3E;gradientColor=none;fillColor=#232F3D;strokeColor=none;dashed=0;verticalLabelPosition=bottom;verticalAlign=top;align=center;html=1;fontSize=12;fontStyle=0;aspect=fixed;pointerEvents=1;shape=mxgraph.aws4.user;" parent="dlywzHCYDAKwAIvzZoa1-96" vertex="1">
          <mxGeometry x="681.52" y="500" width="28" height="28" as="geometry" />
        </mxCell>
        <mxCell id="dlywzHCYDAKwAIvzZoa1-25" value="&lt;font face=&quot;Times New Roman&quot; style=&quot;&quot;&gt;&lt;b style=&quot;&quot;&gt;U&lt;span style=&quot;font-size: 10px;&quot;&gt;i-1&lt;/span&gt;&lt;/b&gt;&lt;/font&gt;" style="text;strokeColor=none;align=center;fillColor=none;html=1;verticalAlign=middle;whiteSpace=wrap;rounded=0;" parent="dlywzHCYDAKwAIvzZoa1-96" vertex="1">
          <mxGeometry x="676.02" y="528" width="39" height="30" as="geometry" />
        </mxCell>
        <mxCell id="8uZlXo2zn4zUqa4FPAqo-17" value="" style="image;aspect=fixed;perimeter=ellipsePerimeter;html=1;align=center;shadow=0;dashed=0;spacingTop=3;image=img/lib/active_directory/internet_cloud.svg;" parent="dlywzHCYDAKwAIvzZoa1-96" vertex="1">
          <mxGeometry x="255.23090909090905" y="90" width="247.61879999999996" height="156" as="geometry" />
        </mxCell>
        <mxCell id="dlywzHCYDAKwAIvzZoa1-38" value="" style="rounded=0;whiteSpace=wrap;html=1;" parent="dlywzHCYDAKwAIvzZoa1-96" vertex="1">
          <mxGeometry x="486.52" y="280" width="228.5" height="40" as="geometry" />
        </mxCell>
        <mxCell id="dlywzHCYDAKwAIvzZoa1-39" value="&lt;font size=&quot;1&quot; face=&quot;Times New Roman&quot; style=&quot;&quot;&gt;&lt;b style=&quot;font-size: 15px;&quot;&gt;R&lt;sub&gt;3&lt;/sub&gt;&lt;/b&gt;&lt;/font&gt;" style="text;strokeColor=#b46504;align=center;fillColor=#FFB366;html=1;verticalAlign=middle;whiteSpace=wrap;rounded=0;" parent="dlywzHCYDAKwAIvzZoa1-96" vertex="1">
          <mxGeometry x="494.81" y="285" width="35" height="30" as="geometry" />
        </mxCell>
        <mxCell id="dlywzHCYDAKwAIvzZoa1-40" value="&lt;font face=&quot;Times New Roman&quot; style=&quot;&quot;&gt;&lt;b style=&quot;font-size: 15px;&quot;&gt;R&lt;/b&gt;&lt;b style=&quot;font-size: 12.5px;&quot;&gt;6&lt;/b&gt;&lt;/font&gt;" style="text;strokeColor=#b46504;align=center;fillColor=#FFB366;html=1;verticalAlign=middle;whiteSpace=wrap;rounded=0;" parent="dlywzHCYDAKwAIvzZoa1-96" vertex="1">
          <mxGeometry x="550" y="285" width="35" height="30" as="geometry" />
        </mxCell>
        <mxCell id="dlywzHCYDAKwAIvzZoa1-41" value="" style="sketch=0;outlineConnect=0;fontColor=#232F3E;gradientColor=none;fillColor=#232F3D;strokeColor=none;dashed=0;verticalLabelPosition=bottom;verticalAlign=top;align=center;html=1;fontSize=12;fontStyle=0;aspect=fixed;pointerEvents=1;shape=mxgraph.aws4.user;" parent="dlywzHCYDAKwAIvzZoa1-96" vertex="1">
          <mxGeometry x="509.99999999999994" y="512" width="28" height="28" as="geometry" />
        </mxCell>
        <mxCell id="dlywzHCYDAKwAIvzZoa1-42" value="&lt;font face=&quot;Times New Roman&quot; style=&quot;font-size: 12px;&quot;&gt;&lt;b style=&quot;&quot;&gt;U&lt;sub&gt;3&lt;/sub&gt;&lt;/b&gt;&lt;/font&gt;" style="text;strokeColor=none;align=center;fillColor=none;html=1;verticalAlign=middle;whiteSpace=wrap;rounded=0;" parent="dlywzHCYDAKwAIvzZoa1-96" vertex="1">
          <mxGeometry x="502.84999999999997" y="539" width="39" height="30" as="geometry" />
        </mxCell>
        <mxCell id="dlywzHCYDAKwAIvzZoa1-43" value="" style="sketch=0;outlineConnect=0;fontColor=#232F3E;gradientColor=none;fillColor=#232F3D;strokeColor=none;dashed=0;verticalLabelPosition=bottom;verticalAlign=top;align=center;html=1;fontSize=12;fontStyle=0;aspect=fixed;pointerEvents=1;shape=mxgraph.aws4.user;" parent="dlywzHCYDAKwAIvzZoa1-96" vertex="1">
          <mxGeometry x="342.99999999999994" y="750" width="28" height="28" as="geometry" />
        </mxCell>
        <mxCell id="dlywzHCYDAKwAIvzZoa1-44" value="&lt;font face=&quot;Times New Roman&quot; style=&quot;&quot;&gt;&lt;b style=&quot;&quot;&gt;U&lt;span style=&quot;font-size: 10px;&quot;&gt;2&lt;/span&gt;&lt;/b&gt;&lt;/font&gt;" style="text;strokeColor=none;align=center;fillColor=none;html=1;verticalAlign=middle;whiteSpace=wrap;rounded=0;" parent="dlywzHCYDAKwAIvzZoa1-96" vertex="1">
          <mxGeometry x="337.49999999999994" y="778" width="39" height="30" as="geometry" />
        </mxCell>
        <mxCell id="dlywzHCYDAKwAIvzZoa1-52" value="" style="group" parent="dlywzHCYDAKwAIvzZoa1-96" vertex="1" connectable="0">
          <mxGeometry x="10" y="30" width="200" height="140" as="geometry" />
        </mxCell>
        <mxCell id="dlywzHCYDAKwAIvzZoa1-48" value="" style="rounded=0;whiteSpace=wrap;html=1;" parent="dlywzHCYDAKwAIvzZoa1-52" vertex="1">
          <mxGeometry width="200" height="140" as="geometry" />
        </mxCell>
        <mxCell id="dlywzHCYDAKwAIvzZoa1-45" value="&lt;font size=&quot;1&quot; face=&quot;Times New Roman&quot; style=&quot;&quot;&gt;&lt;b style=&quot;font-size: 15px;&quot;&gt;R&lt;/b&gt;&lt;/font&gt;" style="text;strokeColor=#10739e;align=center;fillColor=#b1ddf0;html=1;verticalAlign=middle;whiteSpace=wrap;rounded=0;" parent="dlywzHCYDAKwAIvzZoa1-52" vertex="1">
          <mxGeometry x="10" y="10" width="35" height="30" as="geometry" />
        </mxCell>
        <mxCell id="dlywzHCYDAKwAIvzZoa1-46" value="&lt;font size=&quot;1&quot; face=&quot;Times New Roman&quot; style=&quot;&quot;&gt;&lt;b style=&quot;font-size: 15px;&quot;&gt;R&lt;/b&gt;&lt;/font&gt;" style="text;strokeColor=#b46504;align=center;fillColor=#FFB366;html=1;verticalAlign=middle;whiteSpace=wrap;rounded=0;" parent="dlywzHCYDAKwAIvzZoa1-52" vertex="1">
          <mxGeometry x="10.000000000000057" y="50" width="35" height="30" as="geometry" />
        </mxCell>
        <mxCell id="dlywzHCYDAKwAIvzZoa1-50" value="&lt;font size=&quot;1&quot; face=&quot;Times New Roman&quot;&gt;&lt;b style=&quot;font-size: 18px;&quot;&gt;finished SR&lt;/b&gt;&lt;/font&gt;" style="text;strokeColor=none;align=center;fillColor=none;html=1;verticalAlign=middle;whiteSpace=wrap;rounded=0;" parent="dlywzHCYDAKwAIvzZoa1-52" vertex="1">
          <mxGeometry x="54.03999999999999" y="10" width="120" height="30" as="geometry" />
        </mxCell>
        <mxCell id="dlywzHCYDAKwAIvzZoa1-51" value="&lt;font size=&quot;1&quot; face=&quot;Times New Roman&quot;&gt;&lt;b style=&quot;font-size: 18px;&quot;&gt;running SR&lt;/b&gt;&lt;/font&gt;" style="text;strokeColor=none;align=center;fillColor=none;html=1;verticalAlign=middle;whiteSpace=wrap;rounded=0;" parent="dlywzHCYDAKwAIvzZoa1-52" vertex="1">
          <mxGeometry x="54.03999999999999" y="49.19999999999999" width="120" height="30" as="geometry" />
        </mxCell>
        <mxCell id="hPKG2hxinoWSEpem3U7g-11" value="&lt;font size=&quot;1&quot; face=&quot;Times New Roman&quot; style=&quot;&quot;&gt;&lt;b style=&quot;font-size: 15px;&quot;&gt;R&lt;/b&gt;&lt;/font&gt;" style="text;strokeColor=#56517e;align=center;fillColor=#d0cee2;html=1;verticalAlign=middle;whiteSpace=wrap;rounded=0;" parent="dlywzHCYDAKwAIvzZoa1-52" vertex="1">
          <mxGeometry x="10" y="90" width="35" height="30" as="geometry" />
        </mxCell>
        <mxCell id="hPKG2hxinoWSEpem3U7g-12" value="&lt;font size=&quot;1&quot; face=&quot;Times New Roman&quot;&gt;&lt;b style=&quot;font-size: 18px;&quot;&gt;scheduling SR&lt;/b&gt;&lt;/font&gt;" style="text;strokeColor=none;align=center;fillColor=none;html=1;verticalAlign=middle;whiteSpace=wrap;rounded=0;" parent="dlywzHCYDAKwAIvzZoa1-52" vertex="1">
          <mxGeometry x="54.039999999999964" y="90" width="120" height="30" as="geometry" />
        </mxCell>
        <mxCell id="dlywzHCYDAKwAIvzZoa1-91" value="&lt;font style=&quot;font-size: 18px;&quot;&gt;&lt;b&gt;Scheduler&lt;/b&gt;&lt;/font&gt;&lt;div style=&quot;font-size: 18px;&quot;&gt;&lt;font style=&quot;font-size: 18px;&quot;&gt;&lt;b&gt;(MEO)&lt;/b&gt;&lt;/font&gt;&lt;/div&gt;" style="rounded=0;whiteSpace=wrap;html=1;" parent="dlywzHCYDAKwAIvzZoa1-96" vertex="1">
          <mxGeometry x="850" y="220" width="120" height="640" as="geometry" />
        </mxCell>
        <mxCell id="hPKG2hxinoWSEpem3U7g-1" value="&lt;font face=&quot;Times New Roman&quot; style=&quot;&quot;&gt;&lt;b style=&quot;font-size: 15px;&quot;&gt;R&lt;/b&gt;&lt;b style=&quot;font-size: 12.5px;&quot;&gt;1&lt;/b&gt;&lt;/font&gt;" style="text;strokeColor=#b46504;align=center;fillColor=#FFB366;html=1;verticalAlign=middle;whiteSpace=wrap;rounded=0;" parent="dlywzHCYDAKwAIvzZoa1-96" vertex="1">
          <mxGeometry x="140" y="325" width="35" height="30" as="geometry" />
        </mxCell>
        <mxCell id="hPKG2hxinoWSEpem3U7g-2" value="&lt;font face=&quot;Times New Roman&quot; style=&quot;&quot;&gt;&lt;b style=&quot;font-size: 15px;&quot;&gt;R&lt;/b&gt;&lt;b style=&quot;font-size: 12.5px;&quot;&gt;5&lt;/b&gt;&lt;/font&gt;" style="text;strokeColor=#b46504;align=center;fillColor=#FFB366;html=1;verticalAlign=middle;whiteSpace=wrap;rounded=0;" parent="dlywzHCYDAKwAIvzZoa1-96" vertex="1">
          <mxGeometry x="200" y="325" width="35" height="30" as="geometry" />
        </mxCell>
        <mxCell id="hPKG2hxinoWSEpem3U7g-5" value="&lt;font size=&quot;1&quot; face=&quot;Times New Roman&quot;&gt;&lt;b style=&quot;font-size: 24px;&quot;&gt;...&lt;/b&gt;&lt;/font&gt;" style="text;strokeColor=none;align=center;fillColor=none;html=1;verticalAlign=middle;whiteSpace=wrap;rounded=0;" parent="dlywzHCYDAKwAIvzZoa1-96" vertex="1">
          <mxGeometry x="580" y="285" width="60" height="20" as="geometry" />
        </mxCell>
        <mxCell id="hPKG2hxinoWSEpem3U7g-6" value="&lt;font face=&quot;Times New Roman&quot; style=&quot;&quot;&gt;&lt;b style=&quot;font-size: 15px;&quot;&gt;R&lt;/b&gt;&lt;b style=&quot;font-size: 12.5px;&quot;&gt;&lt;sub&gt;i-1&lt;/sub&gt;&lt;/b&gt;&lt;/font&gt;" style="text;strokeColor=#b46504;align=center;fillColor=#FFB366;html=1;verticalAlign=middle;whiteSpace=wrap;rounded=0;" parent="dlywzHCYDAKwAIvzZoa1-96" vertex="1">
          <mxGeometry x="650.23" y="285" width="35" height="30" as="geometry" />
        </mxCell>
        <mxCell id="hPKG2hxinoWSEpem3U7g-7" value="&lt;font face=&quot;Times New Roman&quot; style=&quot;&quot;&gt;&lt;b style=&quot;font-size: 15px;&quot;&gt;R&lt;/b&gt;&lt;b style=&quot;font-size: 12.5px;&quot;&gt;&lt;sub&gt;i&lt;/sub&gt;&lt;/b&gt;&lt;/font&gt;" style="text;align=center;html=1;verticalAlign=middle;whiteSpace=wrap;rounded=0;strokeColor=#56517e;fillColor=#d0cee2;" parent="dlywzHCYDAKwAIvzZoa1-96" vertex="1">
          <mxGeometry x="892.5" y="342" width="35" height="30" as="geometry" />
        </mxCell>
        <mxCell id="hPKG2hxinoWSEpem3U7g-52" value="" style="sketch=0;outlineConnect=0;fontColor=#232F3E;gradientColor=none;fillColor=#232F3D;strokeColor=none;dashed=0;verticalLabelPosition=bottom;verticalAlign=top;align=center;html=1;fontSize=12;fontStyle=0;aspect=fixed;pointerEvents=1;shape=mxgraph.aws4.user;" parent="dlywzHCYDAKwAIvzZoa1-96" vertex="1">
          <mxGeometry x="570" y="700" width="28" height="28" as="geometry" />
        </mxCell>
        <mxCell id="hPKG2hxinoWSEpem3U7g-53" value="&lt;font face=&quot;Times New Roman&quot; style=&quot;&quot;&gt;&lt;b style=&quot;&quot;&gt;U&lt;span style=&quot;font-size: 10px;&quot;&gt;i&lt;/span&gt;&lt;/b&gt;&lt;/font&gt;" style="text;strokeColor=none;align=center;fillColor=none;html=1;verticalAlign=middle;whiteSpace=wrap;rounded=0;" parent="dlywzHCYDAKwAIvzZoa1-96" vertex="1">
          <mxGeometry x="564.5" y="720" width="39" height="30" as="geometry" />
        </mxCell>
        <mxCell id="Xga0qs_DyKMkCKS5Os-a-7" value="" style="group" vertex="1" connectable="0" parent="dlywzHCYDAKwAIvzZoa1-96">
          <mxGeometry x="337.5" y="582" width="108.26999999999998" height="40" as="geometry" />
        </mxCell>
        <mxCell id="dlywzHCYDAKwAIvzZoa1-27" value="" style="rounded=0;whiteSpace=wrap;html=1;" parent="Xga0qs_DyKMkCKS5Os-a-7" vertex="1">
          <mxGeometry width="102.5" height="40" as="geometry" />
        </mxCell>
        <mxCell id="hPKG2hxinoWSEpem3U7g-3" value="&lt;font face=&quot;Times New Roman&quot; style=&quot;&quot;&gt;&lt;b style=&quot;font-size: 15px;&quot;&gt;R&lt;/b&gt;&lt;b style=&quot;font-size: 12.5px;&quot;&gt;2&lt;/b&gt;&lt;/font&gt;" style="text;strokeColor=#b46504;align=center;fillColor=#FFB366;html=1;verticalAlign=middle;whiteSpace=wrap;rounded=0;" parent="Xga0qs_DyKMkCKS5Os-a-7" vertex="1">
          <mxGeometry x="13.269999999999982" y="5" width="35" height="30" as="geometry" />
        </mxCell>
        <mxCell id="hPKG2hxinoWSEpem3U7g-4" value="&lt;font size=&quot;1&quot; face=&quot;Times New Roman&quot;&gt;&lt;b style=&quot;font-size: 24px;&quot;&gt;...&lt;/b&gt;&lt;/font&gt;" style="text;strokeColor=none;align=center;fillColor=none;html=1;verticalAlign=middle;whiteSpace=wrap;rounded=0;" parent="Xga0qs_DyKMkCKS5Os-a-7" vertex="1">
          <mxGeometry x="48.26999999999998" y="5" width="60" height="20" as="geometry" />
        </mxCell>
        <mxCell id="dlywzHCYDAKwAIvzZoa1-134" value="" style="endArrow=classic;html=1;rounded=0;" parent="1" edge="1">
          <mxGeometry width="50" height="50" relative="1" as="geometry">
            <mxPoint x="430" y="650" as="sourcePoint" />
            <mxPoint x="700" y="650" as="targetPoint" />
          </mxGeometry>
        </mxCell>
        <mxCell id="dlywzHCYDAKwAIvzZoa1-135" value="&lt;font size=&quot;1&quot; face=&quot;Times New Roman&quot;&gt;&lt;b style=&quot;font-size: 26px;&quot;&gt;$$ T_{i}^{wait} $$&lt;/b&gt;&lt;/font&gt;" style="text;strokeColor=none;align=center;fillColor=none;html=1;verticalAlign=middle;whiteSpace=wrap;rounded=0;" parent="1" vertex="1">
          <mxGeometry x="500" y="585" width="120" height="70" as="geometry" />
        </mxCell>
        <mxCell id="Xga0qs_DyKMkCKS5Os-a-8" value="" style="group" vertex="1" connectable="0" parent="1">
          <mxGeometry x="700" y="150" width="1000" height="930" as="geometry" />
        </mxCell>
        <mxCell id="Xga0qs_DyKMkCKS5Os-a-9" value="" style="rounded=0;whiteSpace=wrap;html=1;" vertex="1" parent="Xga0qs_DyKMkCKS5Os-a-8">
          <mxGeometry y="20" width="1000" height="910" as="geometry" />
        </mxCell>
        <mxCell id="Xga0qs_DyKMkCKS5Os-a-10" value="&lt;font size=&quot;1&quot; face=&quot;Times New Roman&quot; style=&quot;&quot;&gt;&lt;b style=&quot;font-size: 20px;&quot;&gt;MEC System&lt;/b&gt;&lt;/font&gt;" style="text;strokeColor=none;align=center;fillColor=none;html=1;verticalAlign=middle;whiteSpace=wrap;rounded=0;" vertex="1" parent="Xga0qs_DyKMkCKS5Os-a-8">
          <mxGeometry x="123.41650909090902" width="501.8181818181818" height="109.19999999999999" as="geometry" />
        </mxCell>
        <mxCell id="Xga0qs_DyKMkCKS5Os-a-11" value="" style="ellipse;whiteSpace=wrap;html=1;aspect=fixed;fillColor=none;dashed=1;" vertex="1" parent="Xga0qs_DyKMkCKS5Os-a-8">
          <mxGeometry x="400.77" y="208" width="400" height="400" as="geometry" />
        </mxCell>
        <mxCell id="Xga0qs_DyKMkCKS5Os-a-12" value="" style="ellipse;whiteSpace=wrap;html=1;aspect=fixed;fillColor=none;dashed=1;" vertex="1" parent="Xga0qs_DyKMkCKS5Os-a-8">
          <mxGeometry x="268.27" y="500" width="400" height="400" as="geometry" />
        </mxCell>
        <mxCell id="Xga0qs_DyKMkCKS5Os-a-13" value="" style="ellipse;whiteSpace=wrap;html=1;aspect=fixed;fillColor=none;dashed=1;" vertex="1" parent="Xga0qs_DyKMkCKS5Os-a-8">
          <mxGeometry x="50.76999999999998" y="300" width="300" height="300" as="geometry" />
        </mxCell>
        <mxCell id="Xga0qs_DyKMkCKS5Os-a-14" value="" style="image;points=[];aspect=fixed;html=1;align=center;shadow=0;dashed=0;image=img/lib/allied_telesis/computer_and_terminals/Server_Desktop.svg;" vertex="1" parent="Xga0qs_DyKMkCKS5Os-a-8">
          <mxGeometry x="139.23090909090905" y="372" width="123.06839999999998" height="156" as="geometry" />
        </mxCell>
        <mxCell id="Xga0qs_DyKMkCKS5Os-a-15" value="" style="image;points=[];aspect=fixed;html=1;align=center;shadow=0;dashed=0;image=img/lib/allied_telesis/computer_and_terminals/Server_Desktop.svg;" vertex="1" parent="Xga0qs_DyKMkCKS5Os-a-8">
          <mxGeometry x="539.2318181818182" y="329.99999999999994" width="123.06839999999998" height="156" as="geometry" />
        </mxCell>
        <mxCell id="Xga0qs_DyKMkCKS5Os-a-16" value="" style="image;points=[];aspect=fixed;html=1;align=center;shadow=0;dashed=0;image=img/lib/allied_telesis/computer_and_terminals/Server_Desktop.svg;" vertex="1" parent="Xga0qs_DyKMkCKS5Os-a-8">
          <mxGeometry x="406.7381818181817" y="621.9999999999999" width="123.06839999999998" height="156" as="geometry" />
        </mxCell>
        <mxCell id="Xga0qs_DyKMkCKS5Os-a-19" value="" style="rounded=0;whiteSpace=wrap;html=1;" vertex="1" parent="Xga0qs_DyKMkCKS5Os-a-8">
          <mxGeometry x="133.27" y="320" width="116.73" height="40" as="geometry" />
        </mxCell>
        <mxCell id="Xga0qs_DyKMkCKS5Os-a-20" value="" style="sketch=0;outlineConnect=0;fontColor=#232F3E;gradientColor=none;fillColor=#232F3D;strokeColor=none;dashed=0;verticalLabelPosition=bottom;verticalAlign=top;align=center;html=1;fontSize=12;fontStyle=0;aspect=fixed;pointerEvents=1;shape=mxgraph.aws4.user;" vertex="1" parent="Xga0qs_DyKMkCKS5Os-a-8">
          <mxGeometry x="445.77" y="355" width="28" height="28" as="geometry" />
        </mxCell>
        <mxCell id="Xga0qs_DyKMkCKS5Os-a-21" value="&lt;font face=&quot;Times New Roman&quot; style=&quot;&quot;&gt;&lt;b style=&quot;&quot;&gt;U&lt;span style=&quot;font-size: 10px;&quot;&gt;i-1&lt;/span&gt;&lt;/b&gt;&lt;/font&gt;" style="text;strokeColor=none;align=center;fillColor=none;html=1;verticalAlign=middle;whiteSpace=wrap;rounded=0;" vertex="1" parent="Xga0qs_DyKMkCKS5Os-a-8">
          <mxGeometry x="440.27" y="383" width="39" height="30" as="geometry" />
        </mxCell>
        <mxCell id="Xga0qs_DyKMkCKS5Os-a-22" value="" style="image;aspect=fixed;perimeter=ellipsePerimeter;html=1;align=center;shadow=0;dashed=0;spacingTop=3;image=img/lib/active_directory/internet_cloud.svg;" vertex="1" parent="Xga0qs_DyKMkCKS5Os-a-8">
          <mxGeometry x="255.23090909090905" y="90" width="247.61879999999996" height="156" as="geometry" />
        </mxCell>
        <mxCell id="Xga0qs_DyKMkCKS5Os-a-23" value="" style="rounded=0;whiteSpace=wrap;html=1;" vertex="1" parent="Xga0qs_DyKMkCKS5Os-a-8">
          <mxGeometry x="486.52" y="280" width="228.5" height="40" as="geometry" />
        </mxCell>
        <mxCell id="Xga0qs_DyKMkCKS5Os-a-25" value="&lt;font face=&quot;Times New Roman&quot; style=&quot;&quot;&gt;&lt;b style=&quot;font-size: 15px;&quot;&gt;R&lt;/b&gt;&lt;b style=&quot;font-size: 12.5px;&quot;&gt;8&lt;/b&gt;&lt;/font&gt;" style="text;strokeColor=#b46504;align=center;fillColor=#FFB366;html=1;verticalAlign=middle;whiteSpace=wrap;rounded=0;" vertex="1" parent="Xga0qs_DyKMkCKS5Os-a-8">
          <mxGeometry x="502.85" y="285" width="35" height="30" as="geometry" />
        </mxCell>
        <mxCell id="Xga0qs_DyKMkCKS5Os-a-26" value="" style="sketch=0;outlineConnect=0;fontColor=#232F3E;gradientColor=none;fillColor=#232F3D;strokeColor=none;dashed=0;verticalLabelPosition=bottom;verticalAlign=top;align=center;html=1;fontSize=12;fontStyle=0;aspect=fixed;pointerEvents=1;shape=mxgraph.aws4.user;" vertex="1" parent="Xga0qs_DyKMkCKS5Os-a-8">
          <mxGeometry x="249.99999999999994" y="512" width="28" height="28" as="geometry" />
        </mxCell>
        <mxCell id="Xga0qs_DyKMkCKS5Os-a-27" value="&lt;font face=&quot;Times New Roman&quot; style=&quot;font-size: 12px;&quot;&gt;&lt;b style=&quot;&quot;&gt;U&lt;sub&gt;5&lt;/sub&gt;&lt;/b&gt;&lt;/font&gt;" style="text;strokeColor=none;align=center;fillColor=none;html=1;verticalAlign=middle;whiteSpace=wrap;rounded=0;" vertex="1" parent="Xga0qs_DyKMkCKS5Os-a-8">
          <mxGeometry x="244.49999999999994" y="537" width="39" height="30" as="geometry" />
        </mxCell>
        <mxCell id="Xga0qs_DyKMkCKS5Os-a-30" value="" style="group" vertex="1" connectable="0" parent="Xga0qs_DyKMkCKS5Os-a-8">
          <mxGeometry x="10" y="30" width="200" height="140" as="geometry" />
        </mxCell>
        <mxCell id="Xga0qs_DyKMkCKS5Os-a-31" value="" style="rounded=0;whiteSpace=wrap;html=1;" vertex="1" parent="Xga0qs_DyKMkCKS5Os-a-30">
          <mxGeometry width="200" height="140" as="geometry" />
        </mxCell>
        <mxCell id="Xga0qs_DyKMkCKS5Os-a-32" value="&lt;font size=&quot;1&quot; face=&quot;Times New Roman&quot; style=&quot;&quot;&gt;&lt;b style=&quot;font-size: 15px;&quot;&gt;R&lt;/b&gt;&lt;/font&gt;" style="text;strokeColor=#10739e;align=center;fillColor=#b1ddf0;html=1;verticalAlign=middle;whiteSpace=wrap;rounded=0;" vertex="1" parent="Xga0qs_DyKMkCKS5Os-a-30">
          <mxGeometry x="10" y="10" width="35" height="30" as="geometry" />
        </mxCell>
        <mxCell id="Xga0qs_DyKMkCKS5Os-a-33" value="&lt;font size=&quot;1&quot; face=&quot;Times New Roman&quot; style=&quot;&quot;&gt;&lt;b style=&quot;font-size: 15px;&quot;&gt;R&lt;/b&gt;&lt;/font&gt;" style="text;strokeColor=#b46504;align=center;fillColor=#FFB366;html=1;verticalAlign=middle;whiteSpace=wrap;rounded=0;" vertex="1" parent="Xga0qs_DyKMkCKS5Os-a-30">
          <mxGeometry x="10.000000000000057" y="50" width="35" height="30" as="geometry" />
        </mxCell>
        <mxCell id="Xga0qs_DyKMkCKS5Os-a-34" value="&lt;font size=&quot;1&quot; face=&quot;Times New Roman&quot;&gt;&lt;b style=&quot;font-size: 18px;&quot;&gt;finished SR&lt;/b&gt;&lt;/font&gt;" style="text;strokeColor=none;align=center;fillColor=none;html=1;verticalAlign=middle;whiteSpace=wrap;rounded=0;" vertex="1" parent="Xga0qs_DyKMkCKS5Os-a-30">
          <mxGeometry x="54.03999999999999" y="10" width="120" height="30" as="geometry" />
        </mxCell>
        <mxCell id="Xga0qs_DyKMkCKS5Os-a-35" value="&lt;font size=&quot;1&quot; face=&quot;Times New Roman&quot;&gt;&lt;b style=&quot;font-size: 18px;&quot;&gt;running SR&lt;/b&gt;&lt;/font&gt;" style="text;strokeColor=none;align=center;fillColor=none;html=1;verticalAlign=middle;whiteSpace=wrap;rounded=0;" vertex="1" parent="Xga0qs_DyKMkCKS5Os-a-30">
          <mxGeometry x="54.03999999999999" y="49.19999999999999" width="120" height="30" as="geometry" />
        </mxCell>
        <mxCell id="Xga0qs_DyKMkCKS5Os-a-36" value="&lt;font size=&quot;1&quot; face=&quot;Times New Roman&quot; style=&quot;&quot;&gt;&lt;b style=&quot;font-size: 15px;&quot;&gt;R&lt;/b&gt;&lt;/font&gt;" style="text;strokeColor=#56517e;align=center;fillColor=#d0cee2;html=1;verticalAlign=middle;whiteSpace=wrap;rounded=0;" vertex="1" parent="Xga0qs_DyKMkCKS5Os-a-30">
          <mxGeometry x="10" y="90" width="35" height="30" as="geometry" />
        </mxCell>
        <mxCell id="Xga0qs_DyKMkCKS5Os-a-37" value="&lt;font size=&quot;1&quot; face=&quot;Times New Roman&quot;&gt;&lt;b style=&quot;font-size: 18px;&quot;&gt;scheduling SR&lt;/b&gt;&lt;/font&gt;" style="text;strokeColor=none;align=center;fillColor=none;html=1;verticalAlign=middle;whiteSpace=wrap;rounded=0;" vertex="1" parent="Xga0qs_DyKMkCKS5Os-a-30">
          <mxGeometry x="54.039999999999964" y="90" width="120" height="30" as="geometry" />
        </mxCell>
        <mxCell id="Xga0qs_DyKMkCKS5Os-a-38" value="&lt;font style=&quot;font-size: 18px;&quot;&gt;&lt;b&gt;Scheduler&lt;/b&gt;&lt;/font&gt;&lt;div style=&quot;font-size: 18px;&quot;&gt;&lt;font style=&quot;font-size: 18px;&quot;&gt;&lt;b&gt;(MEO)&lt;/b&gt;&lt;/font&gt;&lt;/div&gt;" style="rounded=0;whiteSpace=wrap;html=1;" vertex="1" parent="Xga0qs_DyKMkCKS5Os-a-8">
          <mxGeometry x="850" y="220" width="120" height="640" as="geometry" />
        </mxCell>
        <mxCell id="Xga0qs_DyKMkCKS5Os-a-40" value="&lt;font face=&quot;Times New Roman&quot; style=&quot;&quot;&gt;&lt;b style=&quot;font-size: 15px;&quot;&gt;R&lt;/b&gt;&lt;b style=&quot;font-size: 12.5px;&quot;&gt;5&lt;/b&gt;&lt;/font&gt;" style="text;strokeColor=#b46504;align=center;fillColor=#FFB366;html=1;verticalAlign=middle;whiteSpace=wrap;rounded=0;" vertex="1" parent="Xga0qs_DyKMkCKS5Os-a-8">
          <mxGeometry x="150" y="325" width="35" height="30" as="geometry" />
        </mxCell>
        <mxCell id="Xga0qs_DyKMkCKS5Os-a-41" value="&lt;font size=&quot;1&quot; face=&quot;Times New Roman&quot;&gt;&lt;b style=&quot;font-size: 24px;&quot;&gt;...&lt;/b&gt;&lt;/font&gt;" style="text;strokeColor=none;align=center;fillColor=none;html=1;verticalAlign=middle;whiteSpace=wrap;rounded=0;" vertex="1" parent="Xga0qs_DyKMkCKS5Os-a-8">
          <mxGeometry x="541" y="285" width="60" height="20" as="geometry" />
        </mxCell>
        <mxCell id="Xga0qs_DyKMkCKS5Os-a-42" value="&lt;font face=&quot;Times New Roman&quot; style=&quot;&quot;&gt;&lt;b style=&quot;font-size: 15px;&quot;&gt;R&lt;/b&gt;&lt;b style=&quot;font-size: 12.5px;&quot;&gt;&lt;sub&gt;i-1&lt;/sub&gt;&lt;/b&gt;&lt;/font&gt;" style="text;strokeColor=#b46504;align=center;fillColor=#FFB366;html=1;verticalAlign=middle;whiteSpace=wrap;rounded=0;" vertex="1" parent="Xga0qs_DyKMkCKS5Os-a-8">
          <mxGeometry x="601" y="285" width="35" height="30" as="geometry" />
        </mxCell>
        <mxCell id="Xga0qs_DyKMkCKS5Os-a-43" value="&lt;font face=&quot;Times New Roman&quot; style=&quot;&quot;&gt;&lt;b style=&quot;font-size: 15px;&quot;&gt;R&lt;/b&gt;&lt;b style=&quot;font-size: 12.5px;&quot;&gt;&lt;sub&gt;i+k&lt;/sub&gt;&lt;/b&gt;&lt;/font&gt;" style="text;align=center;html=1;verticalAlign=middle;whiteSpace=wrap;rounded=0;strokeColor=#56517e;fillColor=#d0cee2;" vertex="1" parent="Xga0qs_DyKMkCKS5Os-a-8">
          <mxGeometry x="892.5" y="342" width="35" height="30" as="geometry" />
        </mxCell>
        <mxCell id="Xga0qs_DyKMkCKS5Os-a-44" value="" style="sketch=0;outlineConnect=0;fontColor=#232F3E;gradientColor=none;fillColor=#232F3D;strokeColor=none;dashed=0;verticalLabelPosition=bottom;verticalAlign=top;align=center;html=1;fontSize=12;fontStyle=0;aspect=fixed;pointerEvents=1;shape=mxgraph.aws4.user;" vertex="1" parent="Xga0qs_DyKMkCKS5Os-a-8">
          <mxGeometry x="494.81" y="509" width="28" height="28" as="geometry" />
        </mxCell>
        <mxCell id="Xga0qs_DyKMkCKS5Os-a-45" value="&lt;font face=&quot;Times New Roman&quot; style=&quot;&quot;&gt;&lt;b style=&quot;&quot;&gt;U&lt;span style=&quot;font-size: 10px;&quot;&gt;i&lt;/span&gt;&lt;/b&gt;&lt;/font&gt;" style="text;strokeColor=none;align=center;fillColor=none;html=1;verticalAlign=middle;whiteSpace=wrap;rounded=0;" vertex="1" parent="Xga0qs_DyKMkCKS5Os-a-8">
          <mxGeometry x="489.31" y="537" width="39" height="30" as="geometry" />
        </mxCell>
        <mxCell id="Xga0qs_DyKMkCKS5Os-a-46" value="" style="group" vertex="1" connectable="0" parent="Xga0qs_DyKMkCKS5Os-a-8">
          <mxGeometry x="337.5" y="582" width="108.26999999999998" height="40" as="geometry" />
        </mxCell>
        <mxCell id="Xga0qs_DyKMkCKS5Os-a-47" value="" style="rounded=0;whiteSpace=wrap;html=1;" vertex="1" parent="Xga0qs_DyKMkCKS5Os-a-46">
          <mxGeometry width="102.5" height="40" as="geometry" />
        </mxCell>
        <mxCell id="Xga0qs_DyKMkCKS5Os-a-118" value="&lt;font size=&quot;1&quot; face=&quot;Times New Roman&quot; style=&quot;&quot;&gt;&lt;b style=&quot;font-size: 15px;&quot;&gt;R&lt;sub&gt;7&lt;/sub&gt;&lt;/b&gt;&lt;/font&gt;" style="text;strokeColor=#b46504;align=center;fillColor=#FFB366;html=1;verticalAlign=middle;whiteSpace=wrap;rounded=0;" vertex="1" parent="Xga0qs_DyKMkCKS5Os-a-46">
          <mxGeometry x="12.5" y="5" width="35" height="30" as="geometry" />
        </mxCell>
        <mxCell id="Xga0qs_DyKMkCKS5Os-a-49" value="&lt;font size=&quot;1&quot; face=&quot;Times New Roman&quot;&gt;&lt;b style=&quot;font-size: 24px;&quot;&gt;...&lt;/b&gt;&lt;/font&gt;" style="text;strokeColor=none;align=center;fillColor=none;html=1;verticalAlign=middle;whiteSpace=wrap;rounded=0;" vertex="1" parent="Xga0qs_DyKMkCKS5Os-a-46">
          <mxGeometry x="48.26999999999994" y="5" width="60" height="20" as="geometry" />
        </mxCell>
        <mxCell id="Xga0qs_DyKMkCKS5Os-a-52" value="" style="endArrow=classic;html=1;rounded=0;exitX=0;exitY=0.484;exitDx=0;exitDy=0;exitPerimeter=0;" edge="1" parent="Xga0qs_DyKMkCKS5Os-a-8" source="Xga0qs_DyKMkCKS5Os-a-38" target="Xga0qs_DyKMkCKS5Os-a-15">
          <mxGeometry width="50" height="50" relative="1" as="geometry">
            <mxPoint x="845.04" y="467.80999999999995" as="sourcePoint" />
            <mxPoint x="522.8065818181822" y="527.9966606794576" as="targetPoint" />
          </mxGeometry>
        </mxCell>
        <mxCell id="Xga0qs_DyKMkCKS5Os-a-53" value="&lt;font face=&quot;Times New Roman&quot; style=&quot;&quot;&gt;&lt;b style=&quot;font-size: 15px;&quot;&gt;R&lt;/b&gt;&lt;b style=&quot;font-size: 12.5px;&quot;&gt;&lt;sub&gt;i&lt;/sub&gt;&lt;/b&gt;&lt;/font&gt;" style="text;align=center;html=1;verticalAlign=middle;whiteSpace=wrap;rounded=0;strokeColor=#56517e;fillColor=#d0cee2;rotation=30;" vertex="1" parent="Xga0qs_DyKMkCKS5Os-a-8">
          <mxGeometry x="740" y="440" width="35" height="30" as="geometry" />
        </mxCell>
        <mxCell id="Xga0qs_DyKMkCKS5Os-a-123" value="" style="sketch=0;outlineConnect=0;fontColor=#232F3E;gradientColor=none;fillColor=#232F3D;strokeColor=none;dashed=0;verticalLabelPosition=bottom;verticalAlign=top;align=center;html=1;fontSize=12;fontStyle=0;aspect=fixed;pointerEvents=1;shape=mxgraph.aws4.user;" vertex="1" parent="Xga0qs_DyKMkCKS5Os-a-8">
          <mxGeometry x="458.52" y="810" width="28" height="28" as="geometry" />
        </mxCell>
        <mxCell id="Xga0qs_DyKMkCKS5Os-a-124" value="&lt;font face=&quot;Times New Roman&quot; style=&quot;font-size: 12px;&quot;&gt;&lt;b style=&quot;&quot;&gt;U&lt;sub&gt;7&lt;/sub&gt;&lt;/b&gt;&lt;/font&gt;" style="text;strokeColor=none;align=center;fillColor=none;html=1;verticalAlign=middle;whiteSpace=wrap;rounded=0;" vertex="1" parent="Xga0qs_DyKMkCKS5Os-a-8">
          <mxGeometry x="453.02" y="838" width="39" height="30" as="geometry" />
        </mxCell>
        <mxCell id="Xga0qs_DyKMkCKS5Os-a-125" value="&lt;font face=&quot;Times New Roman&quot; style=&quot;&quot;&gt;&lt;b style=&quot;font-size: 15px;&quot;&gt;R&lt;/b&gt;&lt;b style=&quot;font-size: 12.5px;&quot;&gt;&lt;sub&gt;i+1&lt;/sub&gt;&lt;/b&gt;&lt;/font&gt;" style="text;strokeColor=#b46504;align=center;fillColor=#FFB366;html=1;verticalAlign=middle;whiteSpace=wrap;rounded=0;" vertex="1" parent="Xga0qs_DyKMkCKS5Os-a-8">
          <mxGeometry x="200" y="325" width="35" height="30" as="geometry" />
        </mxCell>
        <mxCell id="Xga0qs_DyKMkCKS5Os-a-128" value="" style="sketch=0;outlineConnect=0;fontColor=#232F3E;gradientColor=none;fillColor=#232F3D;strokeColor=none;dashed=0;verticalLabelPosition=bottom;verticalAlign=top;align=center;html=1;fontSize=12;fontStyle=0;aspect=fixed;pointerEvents=1;shape=mxgraph.aws4.user;" vertex="1" parent="Xga0qs_DyKMkCKS5Os-a-8">
          <mxGeometry x="105.26999999999998" y="500" width="28" height="28" as="geometry" />
        </mxCell>
        <mxCell id="Xga0qs_DyKMkCKS5Os-a-129" value="&lt;font face=&quot;Times New Roman&quot; style=&quot;&quot;&gt;&lt;b style=&quot;&quot;&gt;U&lt;span style=&quot;font-size: 10px;&quot;&gt;&lt;sub&gt;i+1&lt;/sub&gt;&lt;/span&gt;&lt;/b&gt;&lt;/font&gt;" style="text;strokeColor=none;align=center;fillColor=none;html=1;verticalAlign=middle;whiteSpace=wrap;rounded=0;" vertex="1" parent="Xga0qs_DyKMkCKS5Os-a-8">
          <mxGeometry x="100.23000000000002" y="528" width="39" height="30" as="geometry" />
        </mxCell>
        <mxCell id="Xga0qs_DyKMkCKS5Os-a-56" value="" style="endArrow=classic;html=1;rounded=0;" edge="1" parent="1">
          <mxGeometry width="50" height="50" relative="1" as="geometry">
            <mxPoint x="1700" y="655" as="sourcePoint" />
            <mxPoint x="1970" y="655" as="targetPoint" />
          </mxGeometry>
        </mxCell>
        <mxCell id="Xga0qs_DyKMkCKS5Os-a-57" value="&lt;font size=&quot;1&quot; face=&quot;Times New Roman&quot;&gt;&lt;b style=&quot;font-size: 26px;&quot;&gt;$$ T_{i}^{exe} $$&lt;/b&gt;&lt;/font&gt;" style="text;strokeColor=none;align=center;fillColor=none;html=1;verticalAlign=middle;whiteSpace=wrap;rounded=0;" vertex="1" parent="1">
          <mxGeometry x="1790" y="580" width="120" height="70" as="geometry" />
        </mxCell>
        <mxCell id="Xga0qs_DyKMkCKS5Os-a-130" value="" style="group;fontStyle=1" vertex="1" connectable="0" parent="1">
          <mxGeometry x="1970" y="150" width="1000" height="930" as="geometry" />
        </mxCell>
        <mxCell id="Xga0qs_DyKMkCKS5Os-a-131" value="" style="rounded=0;whiteSpace=wrap;html=1;" vertex="1" parent="Xga0qs_DyKMkCKS5Os-a-130">
          <mxGeometry y="20" width="1000" height="910" as="geometry" />
        </mxCell>
        <mxCell id="Xga0qs_DyKMkCKS5Os-a-132" value="&lt;font size=&quot;1&quot; face=&quot;Times New Roman&quot; style=&quot;&quot;&gt;&lt;b style=&quot;font-size: 20px;&quot;&gt;MEC System&lt;/b&gt;&lt;/font&gt;" style="text;strokeColor=none;align=center;fillColor=none;html=1;verticalAlign=middle;whiteSpace=wrap;rounded=0;" vertex="1" parent="Xga0qs_DyKMkCKS5Os-a-130">
          <mxGeometry x="123.41650909090902" width="501.8181818181818" height="109.19999999999999" as="geometry" />
        </mxCell>
        <mxCell id="Xga0qs_DyKMkCKS5Os-a-133" value="" style="ellipse;whiteSpace=wrap;html=1;aspect=fixed;fillColor=none;dashed=1;" vertex="1" parent="Xga0qs_DyKMkCKS5Os-a-130">
          <mxGeometry x="400.77" y="208" width="400" height="400" as="geometry" />
        </mxCell>
        <mxCell id="Xga0qs_DyKMkCKS5Os-a-134" value="" style="ellipse;whiteSpace=wrap;html=1;aspect=fixed;fillColor=none;dashed=1;" vertex="1" parent="Xga0qs_DyKMkCKS5Os-a-130">
          <mxGeometry x="268.27" y="500" width="400" height="400" as="geometry" />
        </mxCell>
        <mxCell id="Xga0qs_DyKMkCKS5Os-a-135" value="" style="ellipse;whiteSpace=wrap;html=1;aspect=fixed;fillColor=none;dashed=1;" vertex="1" parent="Xga0qs_DyKMkCKS5Os-a-130">
          <mxGeometry x="50.76999999999998" y="300" width="300" height="300" as="geometry" />
        </mxCell>
        <mxCell id="Xga0qs_DyKMkCKS5Os-a-136" value="" style="image;points=[];aspect=fixed;html=1;align=center;shadow=0;dashed=0;image=img/lib/allied_telesis/computer_and_terminals/Server_Desktop.svg;" vertex="1" parent="Xga0qs_DyKMkCKS5Os-a-130">
          <mxGeometry x="139.23090909090905" y="372" width="123.06839999999998" height="156" as="geometry" />
        </mxCell>
        <mxCell id="Xga0qs_DyKMkCKS5Os-a-137" value="" style="image;points=[];aspect=fixed;html=1;align=center;shadow=0;dashed=0;image=img/lib/allied_telesis/computer_and_terminals/Server_Desktop.svg;" vertex="1" parent="Xga0qs_DyKMkCKS5Os-a-130">
          <mxGeometry x="539.2318181818182" y="329.99999999999994" width="123.06839999999998" height="156" as="geometry" />
        </mxCell>
        <mxCell id="Xga0qs_DyKMkCKS5Os-a-138" value="" style="image;points=[];aspect=fixed;html=1;align=center;shadow=0;dashed=0;image=img/lib/allied_telesis/computer_and_terminals/Server_Desktop.svg;" vertex="1" parent="Xga0qs_DyKMkCKS5Os-a-130">
          <mxGeometry x="406.7381818181817" y="621.9999999999999" width="123.06839999999998" height="156" as="geometry" />
        </mxCell>
        <mxCell id="Xga0qs_DyKMkCKS5Os-a-139" value="" style="rounded=0;whiteSpace=wrap;html=1;" vertex="1" parent="Xga0qs_DyKMkCKS5Os-a-130">
          <mxGeometry x="133.27" y="320" width="116.73" height="40" as="geometry" />
        </mxCell>
        <mxCell id="Xga0qs_DyKMkCKS5Os-a-140" value="" style="sketch=0;outlineConnect=0;fontColor=#232F3E;gradientColor=none;fillColor=#232F3D;strokeColor=none;dashed=0;verticalLabelPosition=bottom;verticalAlign=top;align=center;html=1;fontSize=12;fontStyle=0;aspect=fixed;pointerEvents=1;shape=mxgraph.aws4.user;" vertex="1" parent="Xga0qs_DyKMkCKS5Os-a-130">
          <mxGeometry x="464.02" y="423" width="28" height="28" as="geometry" />
        </mxCell>
        <mxCell id="Xga0qs_DyKMkCKS5Os-a-141" value="&lt;font face=&quot;Times New Roman&quot; style=&quot;&quot;&gt;&lt;b style=&quot;&quot;&gt;U&lt;span style=&quot;font-size: 10px;&quot;&gt;11&lt;/span&gt;&lt;/b&gt;&lt;/font&gt;" style="text;strokeColor=none;align=center;fillColor=none;html=1;verticalAlign=middle;whiteSpace=wrap;rounded=0;" vertex="1" parent="Xga0qs_DyKMkCKS5Os-a-130">
          <mxGeometry x="458.52" y="456" width="39" height="30" as="geometry" />
        </mxCell>
        <mxCell id="Xga0qs_DyKMkCKS5Os-a-142" value="" style="image;aspect=fixed;perimeter=ellipsePerimeter;html=1;align=center;shadow=0;dashed=0;spacingTop=3;image=img/lib/active_directory/internet_cloud.svg;" vertex="1" parent="Xga0qs_DyKMkCKS5Os-a-130">
          <mxGeometry x="255.23090909090905" y="90" width="247.61879999999996" height="156" as="geometry" />
        </mxCell>
        <mxCell id="Xga0qs_DyKMkCKS5Os-a-143" value="" style="rounded=0;whiteSpace=wrap;html=1;" vertex="1" parent="Xga0qs_DyKMkCKS5Os-a-130">
          <mxGeometry x="486.52" y="280" width="228.5" height="40" as="geometry" />
        </mxCell>
        <mxCell id="Xga0qs_DyKMkCKS5Os-a-144" value="&lt;font face=&quot;Times New Roman&quot; style=&quot;&quot;&gt;&lt;b style=&quot;font-size: 15px;&quot;&gt;R&lt;/b&gt;&lt;b style=&quot;font-size: 12.5px;&quot;&gt;&lt;sub&gt;11&lt;/sub&gt;&lt;/b&gt;&lt;/font&gt;" style="text;strokeColor=#b46504;align=center;fillColor=#FFB366;html=1;verticalAlign=middle;whiteSpace=wrap;rounded=0;" vertex="1" parent="Xga0qs_DyKMkCKS5Os-a-130">
          <mxGeometry x="502.85" y="285" width="35" height="30" as="geometry" />
        </mxCell>
        <mxCell id="Xga0qs_DyKMkCKS5Os-a-147" value="" style="group" vertex="1" connectable="0" parent="Xga0qs_DyKMkCKS5Os-a-130">
          <mxGeometry x="10" y="30" width="200" height="140" as="geometry" />
        </mxCell>
        <mxCell id="Xga0qs_DyKMkCKS5Os-a-148" value="" style="rounded=0;whiteSpace=wrap;html=1;" vertex="1" parent="Xga0qs_DyKMkCKS5Os-a-147">
          <mxGeometry width="200" height="140" as="geometry" />
        </mxCell>
        <mxCell id="Xga0qs_DyKMkCKS5Os-a-149" value="&lt;font size=&quot;1&quot; face=&quot;Times New Roman&quot; style=&quot;&quot;&gt;&lt;b style=&quot;font-size: 15px;&quot;&gt;R&lt;/b&gt;&lt;/font&gt;" style="text;strokeColor=#10739e;align=center;fillColor=#b1ddf0;html=1;verticalAlign=middle;whiteSpace=wrap;rounded=0;" vertex="1" parent="Xga0qs_DyKMkCKS5Os-a-147">
          <mxGeometry x="10" y="10" width="35" height="30" as="geometry" />
        </mxCell>
        <mxCell id="Xga0qs_DyKMkCKS5Os-a-150" value="&lt;font size=&quot;1&quot; face=&quot;Times New Roman&quot; style=&quot;&quot;&gt;&lt;b style=&quot;font-size: 15px;&quot;&gt;R&lt;/b&gt;&lt;/font&gt;" style="text;strokeColor=#b46504;align=center;fillColor=#FFB366;html=1;verticalAlign=middle;whiteSpace=wrap;rounded=0;" vertex="1" parent="Xga0qs_DyKMkCKS5Os-a-147">
          <mxGeometry x="10.000000000000057" y="50" width="35" height="30" as="geometry" />
        </mxCell>
        <mxCell id="Xga0qs_DyKMkCKS5Os-a-151" value="&lt;font size=&quot;1&quot; face=&quot;Times New Roman&quot;&gt;&lt;b style=&quot;font-size: 18px;&quot;&gt;finished SR&lt;/b&gt;&lt;/font&gt;" style="text;strokeColor=none;align=center;fillColor=none;html=1;verticalAlign=middle;whiteSpace=wrap;rounded=0;" vertex="1" parent="Xga0qs_DyKMkCKS5Os-a-147">
          <mxGeometry x="54.03999999999999" y="10" width="120" height="30" as="geometry" />
        </mxCell>
        <mxCell id="Xga0qs_DyKMkCKS5Os-a-152" value="&lt;font size=&quot;1&quot; face=&quot;Times New Roman&quot;&gt;&lt;b style=&quot;font-size: 18px;&quot;&gt;running SR&lt;/b&gt;&lt;/font&gt;" style="text;strokeColor=none;align=center;fillColor=none;html=1;verticalAlign=middle;whiteSpace=wrap;rounded=0;" vertex="1" parent="Xga0qs_DyKMkCKS5Os-a-147">
          <mxGeometry x="54.03999999999999" y="49.19999999999999" width="120" height="30" as="geometry" />
        </mxCell>
        <mxCell id="Xga0qs_DyKMkCKS5Os-a-153" value="&lt;font size=&quot;1&quot; face=&quot;Times New Roman&quot; style=&quot;&quot;&gt;&lt;b style=&quot;font-size: 15px;&quot;&gt;R&lt;/b&gt;&lt;/font&gt;" style="text;strokeColor=#56517e;align=center;fillColor=#d0cee2;html=1;verticalAlign=middle;whiteSpace=wrap;rounded=0;" vertex="1" parent="Xga0qs_DyKMkCKS5Os-a-147">
          <mxGeometry x="10" y="90" width="35" height="30" as="geometry" />
        </mxCell>
        <mxCell id="Xga0qs_DyKMkCKS5Os-a-154" value="&lt;font size=&quot;1&quot; face=&quot;Times New Roman&quot;&gt;&lt;b style=&quot;font-size: 18px;&quot;&gt;scheduling SR&lt;/b&gt;&lt;/font&gt;" style="text;strokeColor=none;align=center;fillColor=none;html=1;verticalAlign=middle;whiteSpace=wrap;rounded=0;" vertex="1" parent="Xga0qs_DyKMkCKS5Os-a-147">
          <mxGeometry x="54.039999999999964" y="90" width="120" height="30" as="geometry" />
        </mxCell>
        <mxCell id="Xga0qs_DyKMkCKS5Os-a-155" value="&lt;font style=&quot;font-size: 18px;&quot;&gt;&lt;b&gt;Scheduler&lt;/b&gt;&lt;/font&gt;&lt;div style=&quot;font-size: 18px;&quot;&gt;&lt;font style=&quot;font-size: 18px;&quot;&gt;&lt;b&gt;(MEO)&lt;/b&gt;&lt;/font&gt;&lt;/div&gt;" style="rounded=0;whiteSpace=wrap;html=1;" vertex="1" parent="Xga0qs_DyKMkCKS5Os-a-130">
          <mxGeometry x="850" y="220" width="120" height="640" as="geometry" />
        </mxCell>
        <mxCell id="Xga0qs_DyKMkCKS5Os-a-157" value="&lt;font size=&quot;1&quot; face=&quot;Times New Roman&quot;&gt;&lt;b style=&quot;font-size: 24px;&quot;&gt;...&lt;/b&gt;&lt;/font&gt;" style="text;strokeColor=none;align=center;fillColor=none;html=1;verticalAlign=middle;whiteSpace=wrap;rounded=0;" vertex="1" parent="Xga0qs_DyKMkCKS5Os-a-130">
          <mxGeometry x="541" y="285" width="60" height="20" as="geometry" />
        </mxCell>
        <mxCell id="Xga0qs_DyKMkCKS5Os-a-158" value="&lt;font face=&quot;Times New Roman&quot; style=&quot;&quot;&gt;&lt;b style=&quot;font-size: 15px;&quot;&gt;R&lt;/b&gt;&lt;b style=&quot;font-size: 12.5px;&quot;&gt;&lt;sub&gt;i-1&lt;/sub&gt;&lt;/b&gt;&lt;/font&gt;" style="text;strokeColor=#b46504;align=center;fillColor=#FFB366;html=1;verticalAlign=middle;whiteSpace=wrap;rounded=0;" vertex="1" parent="Xga0qs_DyKMkCKS5Os-a-130">
          <mxGeometry x="601" y="285" width="35" height="30" as="geometry" />
        </mxCell>
        <mxCell id="Xga0qs_DyKMkCKS5Os-a-159" value="&lt;font face=&quot;Times New Roman&quot; style=&quot;&quot;&gt;&lt;b style=&quot;font-size: 15px;&quot;&gt;R&lt;/b&gt;&lt;b style=&quot;font-size: 12.5px;&quot;&gt;&lt;sub&gt;i+m&lt;/sub&gt;&lt;/b&gt;&lt;/font&gt;" style="text;align=center;html=1;verticalAlign=middle;whiteSpace=wrap;rounded=0;strokeColor=#56517e;fillColor=#d0cee2;" vertex="1" parent="Xga0qs_DyKMkCKS5Os-a-130">
          <mxGeometry x="892.5" y="342" width="35" height="30" as="geometry" />
        </mxCell>
        <mxCell id="Xga0qs_DyKMkCKS5Os-a-160" value="" style="sketch=0;outlineConnect=0;fontColor=#232F3E;gradientColor=none;fillColor=#232F3D;strokeColor=none;dashed=0;verticalLabelPosition=bottom;verticalAlign=top;align=center;html=1;fontSize=12;fontStyle=0;aspect=fixed;pointerEvents=1;shape=mxgraph.aws4.user;" vertex="1" parent="Xga0qs_DyKMkCKS5Os-a-130">
          <mxGeometry x="740" y="315" width="28" height="28" as="geometry" />
        </mxCell>
        <mxCell id="Xga0qs_DyKMkCKS5Os-a-161" value="&lt;font face=&quot;Times New Roman&quot; style=&quot;&quot;&gt;&lt;b style=&quot;&quot;&gt;U&lt;span style=&quot;font-size: 10px;&quot;&gt;i&lt;/span&gt;&lt;/b&gt;&lt;/font&gt;" style="text;strokeColor=none;align=center;fillColor=none;html=1;verticalAlign=middle;whiteSpace=wrap;rounded=0;" vertex="1" parent="Xga0qs_DyKMkCKS5Os-a-130">
          <mxGeometry x="734.5" y="343" width="39" height="30" as="geometry" />
        </mxCell>
        <mxCell id="Xga0qs_DyKMkCKS5Os-a-162" value="" style="group" vertex="1" connectable="0" parent="Xga0qs_DyKMkCKS5Os-a-130">
          <mxGeometry x="337.5" y="582" width="108.26999999999998" height="40" as="geometry" />
        </mxCell>
        <mxCell id="Xga0qs_DyKMkCKS5Os-a-163" value="" style="rounded=0;whiteSpace=wrap;html=1;" vertex="1" parent="Xga0qs_DyKMkCKS5Os-a-162">
          <mxGeometry width="102.5" height="40" as="geometry" />
        </mxCell>
        <mxCell id="Xga0qs_DyKMkCKS5Os-a-164" value="&lt;font size=&quot;1&quot; face=&quot;Times New Roman&quot; style=&quot;&quot;&gt;&lt;b style=&quot;font-size: 15px;&quot;&gt;R&lt;sub&gt;7&lt;/sub&gt;&lt;/b&gt;&lt;/font&gt;" style="text;strokeColor=#b46504;align=center;fillColor=#FFB366;html=1;verticalAlign=middle;whiteSpace=wrap;rounded=0;" vertex="1" parent="Xga0qs_DyKMkCKS5Os-a-162">
          <mxGeometry x="12.5" y="5" width="35" height="30" as="geometry" />
        </mxCell>
        <mxCell id="Xga0qs_DyKMkCKS5Os-a-165" value="&lt;font size=&quot;1&quot; face=&quot;Times New Roman&quot;&gt;&lt;b style=&quot;font-size: 24px;&quot;&gt;...&lt;/b&gt;&lt;/font&gt;" style="text;strokeColor=none;align=center;fillColor=none;html=1;verticalAlign=middle;whiteSpace=wrap;rounded=0;" vertex="1" parent="Xga0qs_DyKMkCKS5Os-a-162">
          <mxGeometry x="48.26999999999994" y="5" width="60" height="20" as="geometry" />
        </mxCell>
        <mxCell id="Xga0qs_DyKMkCKS5Os-a-168" value="" style="sketch=0;outlineConnect=0;fontColor=#232F3E;gradientColor=none;fillColor=#232F3D;strokeColor=none;dashed=0;verticalLabelPosition=bottom;verticalAlign=top;align=center;html=1;fontSize=12;fontStyle=0;aspect=fixed;pointerEvents=1;shape=mxgraph.aws4.user;" vertex="1" parent="Xga0qs_DyKMkCKS5Os-a-130">
          <mxGeometry x="458.52" y="810" width="28" height="28" as="geometry" />
        </mxCell>
        <mxCell id="Xga0qs_DyKMkCKS5Os-a-169" value="&lt;font face=&quot;Times New Roman&quot; style=&quot;font-size: 12px;&quot;&gt;&lt;b style=&quot;&quot;&gt;U&lt;sub&gt;7&lt;/sub&gt;&lt;/b&gt;&lt;/font&gt;" style="text;strokeColor=none;align=center;fillColor=none;html=1;verticalAlign=middle;whiteSpace=wrap;rounded=0;" vertex="1" parent="Xga0qs_DyKMkCKS5Os-a-130">
          <mxGeometry x="453.02" y="838" width="39" height="30" as="geometry" />
        </mxCell>
        <mxCell id="Xga0qs_DyKMkCKS5Os-a-170" value="&lt;font face=&quot;Times New Roman&quot; style=&quot;&quot;&gt;&lt;b style=&quot;font-size: 15px;&quot;&gt;R&lt;/b&gt;&lt;b style=&quot;font-size: 12.5px;&quot;&gt;&lt;sub&gt;i+1&lt;/sub&gt;&lt;/b&gt;&lt;/font&gt;" style="text;strokeColor=#b46504;align=center;fillColor=#FFB366;html=1;verticalAlign=middle;whiteSpace=wrap;rounded=0;" vertex="1" parent="Xga0qs_DyKMkCKS5Os-a-130">
          <mxGeometry x="150" y="325" width="35" height="30" as="geometry" />
        </mxCell>
        <mxCell id="Xga0qs_DyKMkCKS5Os-a-171" value="" style="sketch=0;outlineConnect=0;fontColor=#232F3E;gradientColor=none;fillColor=#232F3D;strokeColor=none;dashed=0;verticalLabelPosition=bottom;verticalAlign=top;align=center;html=1;fontSize=12;fontStyle=0;aspect=fixed;pointerEvents=1;shape=mxgraph.aws4.user;" vertex="1" parent="Xga0qs_DyKMkCKS5Os-a-130">
          <mxGeometry x="83.99999999999999" y="451" width="28" height="28" as="geometry" />
        </mxCell>
        <mxCell id="Xga0qs_DyKMkCKS5Os-a-172" value="&lt;font face=&quot;Times New Roman&quot; style=&quot;&quot;&gt;&lt;b style=&quot;&quot;&gt;U&lt;span style=&quot;font-size: 10px;&quot;&gt;&lt;sub&gt;i+1&lt;/sub&gt;&lt;/span&gt;&lt;/b&gt;&lt;/font&gt;" style="text;strokeColor=none;align=center;fillColor=none;html=1;verticalAlign=middle;whiteSpace=wrap;rounded=0;" vertex="1" parent="Xga0qs_DyKMkCKS5Os-a-130">
          <mxGeometry x="78.00000000000001" y="479" width="39" height="30" as="geometry" />
        </mxCell>
        <mxCell id="Xga0qs_DyKMkCKS5Os-a-173" value="&lt;font size=&quot;1&quot; face=&quot;Times New Roman&quot; style=&quot;&quot;&gt;&lt;b style=&quot;font-size: 15px;&quot;&gt;R&lt;sub&gt;i&lt;/sub&gt;&lt;/b&gt;&lt;/font&gt;" style="text;strokeColor=#10739e;align=center;fillColor=#b1ddf0;html=1;verticalAlign=middle;whiteSpace=wrap;rounded=0;" vertex="1" parent="Xga0qs_DyKMkCKS5Os-a-130">
          <mxGeometry x="662.3000000000002" y="285" width="35" height="30" as="geometry" />
        </mxCell>
        <mxCell id="Xga0qs_DyKMkCKS5Os-a-174" value="" style="endArrow=classic;html=1;rounded=0;exitX=0;exitY=0.484;exitDx=0;exitDy=0;exitPerimeter=0;entryX=0.25;entryY=0;entryDx=0;entryDy=0;" edge="1" parent="Xga0qs_DyKMkCKS5Os-a-130" target="Xga0qs_DyKMkCKS5Os-a-161">
          <mxGeometry width="50" height="50" relative="1" as="geometry">
            <mxPoint x="662.3000000000002" y="412" as="sourcePoint" />
            <mxPoint x="474.3000000000002" y="320" as="targetPoint" />
          </mxGeometry>
        </mxCell>
        <mxCell id="Xga0qs_DyKMkCKS5Os-a-175" value="&lt;font size=&quot;1&quot; face=&quot;Times New Roman&quot; style=&quot;&quot;&gt;&lt;b style=&quot;font-size: 15px;&quot;&gt;R&lt;sub&gt;i&lt;/sub&gt;&lt;/b&gt;&lt;/font&gt;" style="text;strokeColor=#10739e;align=center;fillColor=#b1ddf0;html=1;verticalAlign=middle;whiteSpace=wrap;rounded=0;rotation=-40;" vertex="1" parent="Xga0qs_DyKMkCKS5Os-a-130">
          <mxGeometry x="672.3000000000002" y="342" width="35" height="30" as="geometry" />
        </mxCell>
      </root>
    </mxGraphModel>
  </diagram>
</mxfile>
